<?xml version="1.0" encoding="UTF-8" standalone="no"?>
<!DOCTYPE svg PUBLIC "-//W3C//DTD SVG 1.1//EN" "http://www.w3.org/Graphics/SVG/1.1/DTD/svg11.dtd">
<svg xmlns="http://www.w3.org/2000/svg" version="1.1" viewBox="0 0 1000 1000">
<g stroke-width="2.00" fill="none" stroke-linecap="butt">
<path stroke="#fe9e2f" vector-effect="non-scaling-stroke" d="
  M 726.29 734.75
  Q 725.49 718.15 723.22 701.67"
/>
<path stroke="#fe9e2f" vector-effect="non-scaling-stroke" d="
  M 281.00 697.96
  Q 276.81 715.24 275.71 733.00"
/>
<path stroke="#ec841e" vector-effect="non-scaling-stroke" d="
  M 377.25 510.96
  Q 376.75 509.75 375.51 510.05
  Q 362.39 513.28 351.69 521.18
  Q 346.85 524.76 345.37 526.39
  Q 342.49 529.55 341.59 533.93"
/>
</g>
<path fill="#fec65d" d="
  M 726.29 734.75
  Q 725.49 718.15 723.22 701.67
  Q 734.43 703.56 738.19 702.95
  Q 743.86 702.03 749.59 701.96
  C 760.69 701.83 770.27 697.95 780.25 693.68
  C 796.61 686.69 808.46 676.64 819.84 662.57
  Q 833.81 645.29 837.32 623.26
  Q 837.83 620.08 838.40 616.92
  C 839.53 610.70 839.01 603.87 838.99 597.54
  C 838.98 593.06 837.82 588.95 836.95 584.59
  C 831.09 555.19 807.91 531.64 783.66 515.88
  C 780.29 513.69 778.97 511.07 778.98 507.25
  C 779.05 491.59 780.08 479.25 769.13 467.38
  C 758.56 455.92 753.05 453.16 738.25 451.36
  Q 726.17 449.88 716.25 452.38
  C 706.98 454.72 696.78 465.34 687.72 456.00
  Q 682.12 450.23 681.01 441.53
  Q 677.50 414.07 668.91 387.80
  C 667.80 384.41 665.55 380.51 663.99 376.25
  Q 661.58 369.71 653.76 357.40
  C 652.55 355.49 651.70 352.89 650.50 351.25
  Q 648.03 347.87 640.06 338.10
  C 638.52 336.22 637.76 334.16 635.99 332.38
  C 623.97 320.23 617.25 311.99 606.01 305.65
  C 603.57 304.27 601.75 301.74 599.45 300.20
  Q 572.77 282.34 541.22 275.61
  C 526.69 272.52 511.14 270.06 496.25 271.28
  C 446.34 275.38 403.13 301.87 373.72 341.72
  Q 370.94 345.48 359.93 362.43
  Q 358.99 363.88 356.39 365.25
  A 1.63 1.59 34.0 0 1 355.45 365.42
  C 351.66 364.99 347.94 364.96 344.25 364.12
  Q 337.84 362.67 331.37 361.50
  C 327.50 360.81 323.70 361.01 319.76 360.99
  C 315.37 360.97 311.54 363.09 307.49 364.50
  C 290.56 370.42 278.71 387.23 277.63 404.84
  C 277.49 407.25 276.66 410.41 277.08 413.50
  Q 278.61 424.83 283.03 434.83
  Q 284.01 437.07 281.72 437.92
  C 275.61 440.19 268.19 441.06 263.40 442.41
  C 248.98 446.46 234.40 451.89 222.11 460.60
  Q 209.31 469.67 205.68 472.92
  C 189.60 487.33 178.54 504.95 169.24 524.24
  Q 167.69 527.46 166.79 531.85
  C 165.99 535.73 163.92 538.99 163.30 542.97
  C 161.52 554.43 158.79 565.52 160.63 577.20
  Q 161.33 581.66 162.18 589.32
  C 165.11 615.80 183.24 641.38 199.87 661.04
  Q 202.20 663.79 205.29 666.29
  C 210.22 670.30 215.32 675.07 219.97 678.19
  Q 229.45 684.56 239.92 689.16
  C 245.00 691.39 251.72 694.92 258.45 696.39
  Q 263.91 697.58 266.30 698.26
  C 271.12 699.61 277.02 701.91 281.00 697.96
  Q 276.81 715.24 275.71 733.00
  C 271.30 727.61 265.14 730.16 259.63 727.21
  A 1.63 1.58 55.7 0 0 258.70 727.02
  C 254.25 727.51 251.16 725.36 247.82 724.50
  C 218.20 716.92 194.95 699.88 174.33 677.72
  C 170.22 673.30 165.86 667.38 161.54 662.15
  Q 158.81 658.85 156.96 655.53
  Q 151.58 645.85 146.60 635.96
  C 142.00 626.84 139.38 616.73 136.34 606.93
  Q 135.20 603.27 133.02 590.44
  C 131.40 580.88 132.00 571.05 132.00 561.34
  Q 131.99 553.29 133.09 546.75
  C 137.06 523.16 145.21 502.63 157.24 481.70
  Q 159.80 477.26 163.60 472.93
  C 167.65 468.32 171.36 463.75 175.93 459.49
  Q 181.62 454.18 187.03 448.58
  C 189.02 446.51 191.66 445.39 193.53 444.06
  Q 217.36 427.11 244.99 417.51
  Q 247.74 416.56 247.90 413.65
  C 248.14 409.36 247.80 405.49 248.68 400.69
  C 249.18 397.97 248.76 395.42 249.51 392.84
  C 254.29 376.25 260.59 359.59 274.92 348.81
  C 289.77 337.63 308.31 331.33 327.84 331.98
  Q 329.27 332.03 331.98 332.58
  C 334.62 333.12 337.02 332.80 339.61 333.56
  Q 341.07 333.99 342.56 334.25
  A 1.01 1.00 -60.9 0 0 343.42 334.00
  C 350.61 327.61 352.72 320.12 358.07 313.13
  Q 359.54 311.20 367.31 301.80
  C 374.87 292.63 383.49 285.70 393.25 278.39
  C 406.68 268.34 422.41 260.64 437.93 254.39
  Q 459.75 245.59 483.19 242.99
  C 489.64 242.28 496.20 240.97 502.31 240.92
  C 511.75 240.84 520.62 242.33 529.96 243.00
  C 533.84 243.28 537.85 244.64 541.95 245.07
  Q 545.21 245.41 546.98 245.84
  Q 594.89 257.42 632.04 286.48
  Q 643.22 295.22 656.17 308.95
  C 660.78 313.85 664.90 319.77 669.19 325.25
  C 673.86 331.24 677.00 338.05 680.93 344.50
  Q 693.82 365.63 700.64 389.44
  C 701.21 391.43 703.38 396.31 703.82 399.76
  C 704.57 405.64 706.53 411.42 707.77 417.25
  C 709.43 425.14 718.64 421.01 723.74 421.01
  C 731.29 420.99 741.03 419.96 748.24 422.09
  Q 750.49 422.75 752.34 422.87
  C 756.83 423.17 761.15 425.19 766.10 427.47
  C 782.52 435.04 794.21 443.06 801.32 460.43
  Q 803.99 466.94 807.04 477.10
  C 808.82 483.00 807.72 494.35 811.94 498.63
  C 820.76 507.55 830.96 512.61 837.93 521.32
  C 850.26 536.71 861.53 555.96 865.88 575.34
  C 867.26 581.50 868.86 587.57 868.97 593.90
  C 869.20 607.11 869.50 620.97 866.01 634.03
  C 861.66 650.33 854.99 666.49 845.25 680.33
  C 839.24 688.86 834.62 695.54 826.96 701.71
  C 809.46 715.79 787.41 726.28 766.75 730.51
  Q 761.19 731.65 750.70 732.03
  C 746.76 732.17 741.54 733.48 736.68 732.80
  C 732.26 732.19 729.62 732.39 726.29 734.75
  Z"
/>
<path fill="#fd7500" d="
  M 723.22 701.67
  Q 725.49 718.15 726.29 734.75
  Q 724.47 736.21 724.23 737.99
  Q 722.78 748.66 719.94 756.77
  C 713.84 774.19 702.94 783.26 686.44 791.16
  C 683.03 792.79 670.45 795.32 664.55 794.71
  C 638.21 791.99 621.10 777.10 607.56 754.94
  Q 603.35 748.06 599.20 741.15
  C 596.63 736.88 589.18 719.63 582.69 719.00
  Q 578.79 718.63 562.42 719.25
  C 518.71 720.90 474.53 720.18 430.78 719.79
  C 418.87 719.68 418.35 719.52 412.10 728.35
  Q 404.80 738.68 398.52 749.63
  C 393.99 757.52 388.38 764.34 383.33 771.83
  C 382.23 773.46 371.60 783.73 367.28 785.01
  C 363.44 786.14 358.32 789.40 354.28 790.89
  Q 325.86 801.35 300.73 783.75
  C 296.08 780.50 288.66 771.38 285.67 765.48
  Q 278.51 751.36 277.80 735.24
  A 1.27 0.92 -77.9 0 0 277.43 734.40
  L 275.71 733.00
  Q 276.81 715.24 281.00 697.96
  C 281.90 697.01 282.86 695.88 283.04 694.49
  C 284.73 681.19 286.13 667.32 287.91 654.60
  Q 292.47 622.14 297.01 589.67
  Q 297.85 583.62 298.76 579.37
  C 300.78 569.97 303.27 565.00 309.31 556.52
  C 318.53 543.56 321.16 527.30 329.93 515.99
  C 337.66 506.02 351.78 498.44 363.35 493.93
  C 366.80 492.58 369.72 493.38 373.10 492.29
  C 387.05 487.81 404.53 489.92 418.50 494.50
  C 425.80 496.89 430.69 501.96 437.22 506.39
  A 3.73 3.48 -26.3 0 0 439.25 507.00
  L 566.50 507.00
  Q 568.33 507.00 569.64 505.78
  Q 575.12 500.63 581.46 496.99
  C 596.75 488.23 619.35 488.55 636.03 492.70
  Q 654.90 497.38 668.65 511.11
  C 678.05 520.50 681.39 530.04 685.57 541.44
  Q 688.56 549.59 696.63 559.58
  Q 705.53 570.60 706.70 584.00
  C 707.13 588.84 708.66 593.39 709.12 597.37
  C 709.82 603.43 710.84 608.91 710.93 615.33
  C 711.04 623.81 713.24 632.39 713.88 639.98
  C 715.50 658.94 718.24 675.09 719.53 689.25
  Q 720.19 696.35 723.22 701.67
  Z
  M 341.59 533.93
  Q 339.71 538.04 338.30 542.37
  C 337.57 544.60 338.16 548.09 336.27 550.01
  Q 327.17 559.24 321.81 569.77
  Q 318.39 576.49 316.22 586.76
  C 314.82 593.40 312.35 602.87 313.69 609.51
  A 1.52 1.50 52.0 0 1 313.58 610.45
  Q 311.02 616.18 310.37 621.07
  Q 306.00 653.91 301.57 686.75
  A 1.62 1.54 -20.4 0 1 301.15 687.61
  C 297.75 691.06 297.70 702.53 297.48 707.30
  C 297.07 715.79 293.74 725.69 295.12 733.25
  Q 295.61 735.95 295.70 738.45
  C 296.20 752.82 304.63 763.22 315.70 772.09
  Q 317.90 773.85 320.70 774.63
  C 332.72 777.97 340.36 777.09 351.90 772.72
  C 364.34 768.00 371.99 755.68 380.28 746.38
  C 382.61 743.76 384.32 740.94 386.44 738.21
  C 389.52 734.26 390.69 729.01 393.14 725.14
  Q 397.18 718.77 407.50 704.39
  A 1.00 0.96 17.3 0 1 408.30 703.99
  Q 488.24 704.04 568.19 703.96
  Q 588.92 703.94 594.36 704.13
  A 1.01 0.98 -15.8 0 1 595.14 704.55
  Q 611.28 727.57 626.64 751.12
  C 629.47 755.46 633.29 760.07 637.23 763.46
  C 640.59 766.35 643.72 769.98 647.72 771.91
  C 653.91 774.90 665.86 777.76 672.63 776.36
  C 680.00 774.84 687.60 772.36 692.92 766.75
  C 703.98 755.10 707.53 743.43 707.90 727.53
  Q 707.99 723.83 706.99 716.41
  C 706.19 710.50 706.36 704.92 704.23 698.98
  Q 703.08 695.78 702.78 692.71
  Q 701.73 682.00 700.74 675.50
  C 697.60 654.95 695.63 634.33 692.83 613.75
  C 691.38 603.11 690.34 593.43 686.98 580.60
  C 683.41 567.04 673.11 557.32 666.39 547.37
  C 664.43 544.47 664.32 540.14 663.29 536.63
  C 660.60 527.54 644.22 515.70 636.02 513.44
  Q 621.43 509.42 606.31 510.10
  C 597.47 510.49 590.42 514.51 584.35 521.02
  Q 579.65 526.06 571.76 525.99
  C 531.32 525.63 504.61 523.97 471.31 525.43
  Q 455.72 526.11 434.69 525.90
  Q 430.80 525.87 427.49 525.11
  C 421.17 523.66 420.99 515.65 413.99 515.05
  Q 413.47 515.01 413.07 514.74
  C 403.02 508.02 388.66 509.64 377.25 510.96
  Q 376.75 509.75 375.51 510.05
  Q 362.39 513.28 351.69 521.18
  Q 346.85 524.76 345.37 526.39
  Q 342.49 529.55 341.59 533.93
  Z"
/>
<path fill="#db933d" fill-opacity="0.996" d="
  M 377.25 510.96
  Q 363.83 514.73 361.52 516.25
  C 352.49 522.20 347.51 525.81 341.59 533.93
  Q 342.49 529.55 345.37 526.39
  Q 346.85 524.76 351.69 521.18
  Q 362.39 513.28 375.51 510.05
  Q 376.75 509.75 377.25 510.96
  Z"
/>
<ellipse fill="#fd7500" cx="0.00" cy="0.00" transform="translate(620.98,574.56) rotate(64.6)" rx="12.51" ry="12.25"/>
<path fill="#fd7500" d="
  M 371.38 582.40
  A 2.55 2.17 69.9 0 0 372.17 580.26
  Q 371.43 573.50 373.45 567.03
  A 1.21 1.18 89.2 0 1 374.17 566.27
  C 377.58 564.98 381.61 562.92 385.12 563.62
  Q 390.26 564.65 392.81 569.30
  C 395.47 574.13 390.51 584.73 399.45 584.96
  C 402.12 585.03 404.11 586.24 406.64 586.24
  Q 409.42 586.23 412.19 586.31
  Q 414.65 586.37 415.70 588.60
  C 416.59 590.49 417.57 592.35 417.76 594.50
  C 418.32 600.90 418.37 607.88 411.21 610.46
  C 405.65 612.47 394.09 607.40 393.97 616.83
  Q 393.91 621.58 393.32 626.32
  C 392.23 635.23 377.27 636.92 373.30 629.52
  C 371.26 625.71 371.95 618.95 371.99 614.30
  A 1.11 1.07 -69.3 0 0 371.63 613.46
  C 370.32 612.27 369.10 611.24 367.23 611.10
  C 360.99 610.62 356.01 611.78 350.17 608.75
  A 2.73 2.71 -86.9 0 1 348.91 607.34
  C 344.50 596.27 345.82 584.85 360.68 584.97
  C 362.57 584.98 364.06 585.91 366.01 586.23
  A 1.27 1.23 -59.3 0 0 366.97 585.97
  L 371.38 582.40
  Z"
/>
<path fill="#fd7500" d="
  M 464.86 583.38
  A 1.44 1.44 -76.9 0 1 463.95 581.92
  C 464.16 579.61 463.43 576.64 464.36 574.75
  C 466.43 570.57 475.55 572.38 479.76 571.99
  Q 481.71 571.81 483.14 573.16
  C 485.37 575.27 486.66 579.92 484.58 582.52
  C 481.29 586.65 469.51 585.16 464.86 583.38
  Z"
/>
<path fill="#fd7500" d="
  M 512.55 583.80
  A 1.89 1.51 86.6 0 1 511.44 582.57
  Q 510.01 577.72 512.38 573.43
  A 1.27 0.48 -5.5 0 1 513.25 573.00
  Q 521.30 571.45 529.42 572.36
  Q 531.21 572.56 531.55 574.24
  Q 532.37 578.38 531.46 582.49
  A 0.96 0.76 89.4 0 1 530.94 583.16
  Q 521.83 586.54 512.55 583.80
  Z"
/>
<path fill="#fd7500" d="
  M 641.50 609.21
  Q 639.64 607.60 639.02 605.48
  Q 637.31 599.69 638.83 593.83
  Q 639.34 591.86 640.89 590.63
  C 652.64 581.33 670.92 591.22 661.37 606.86
  C 657.69 612.87 646.52 613.57 641.50 609.21
  Z"
/>
<rect fill="#fd7500" x="-12.65" y="-12.65" transform="translate(593.05,600.66) rotate(-0.2)" width="25.30" height="25.30" rx="11.01"/>
<path fill="#fd7500" d="
  M 613.19 637.56
  C 608.63 634.89 608.70 629.44 609.02 624.79
  Q 609.48 618.01 616.32 615.70
  Q 626.66 612.21 631.53 621.26
  Q 631.73 621.64 631.74 622.21
  Q 631.74 623.51 632.17 626.54
  C 633.68 637.26 621.32 642.33 613.19 637.56
  Z"
/>
<path fill="#fd7500" d="
  M 453.03 679.06
  C 441.94 681.55 430.91 673.33 429.93 662.21
  C 429.26 654.53 430.91 646.13 438.46 642.42
  C 450.14 636.68 466.66 641.30 468.01 656.03
  Q 469.78 675.29 453.03 679.06
  Z"
/>
<path fill="#fd7500" d="
  M 540.19 671.92
  C 533.01 661.34 535.63 642.31 550.50 640.37
  C 558.28 639.36 562.95 639.57 569.06 644.19
  C 573.24 647.34 575.01 649.13 575.02 654.76
  C 575.04 664.07 576.17 670.66 567.09 676.17
  C 558.61 681.31 546.14 680.69 540.19 671.92
  Z"
/>
</svg>
