<svg width="13" height="12" viewBox="0 0 13 12" fill="none" xmlns="http://www.w3.org/2000/svg">
<g id=".">
<path id="Vector" d="M11.4586 5.02075H11.0353V5H6.30588V7H9.27569C8.84242 8.16425 7.6782 9 6.30588 9C4.56467 9 3.15294 7.65675 3.15294 6C3.15294 4.34325 4.56467 3 6.30588 3C7.10962 3 7.84084 3.2885 8.39759 3.75975L9.88394 2.3455C8.94542 1.51325 7.69002 1 6.30588 1C3.40386 1 1.05098 3.23875 1.05098 6C1.05098 8.76125 3.40386 11 6.30588 11C9.2079 11 11.5608 8.76125 11.5608 6C11.5608 5.66475 11.5245 5.3375 11.4586 5.02075Z" fill="#FFC107"/>
<path id="Vector_2" d="M1.65687 3.67275L3.38337 4.8775C3.85053 3.777 4.98191 3 6.30588 3C7.10962 3 7.84084 3.2885 8.39759 3.75975L9.88394 2.3455C8.94542 1.51325 7.69002 1 6.30588 1C4.28747 1 2.53706 2.08425 1.65687 3.67275Z" fill="#FF3D00"/>
<path id="Vector_3" d="M6.30588 11C7.66323 11 8.89655 10.5058 9.82903 9.702L8.20264 8.3925C7.67505 8.77275 7.01924 9 6.30588 9C4.93908 9 3.77854 8.17075 3.34133 7.0135L1.62771 8.26975C2.49739 9.889 4.26357 11 6.30588 11Z" fill="#4CAF50"/>
<path id="Vector_4" d="M11.4586 5.02075H11.0353V5H6.30588V7H9.27569C9.0676 7.55925 8.6895 8.0415 8.20185 8.39275L8.20264 8.39225L9.82903 9.70175C9.71395 9.80125 11.5608 8.5 11.5608 6C11.5608 5.66475 11.5245 5.3375 11.4586 5.02075Z" fill="#1976D2"/>
</g>
</svg>
